<svg xmlns="http://www.w3.org/2000/svg" viewBox="0 0 100 100" fill="none">
  <!-- Whale silhouette — bold, minimal, recognizable at 16×16 -->
  <path d="M82 55c0-12-5-22-14-30C60 17 48 13 35 12 22 12 10 16 4 24c-3 4-4 9-4 14 0 11 5 22 14 30 8 8 18 14 28 16l-10 12h16l10-12c4 0 9-2 13-5 6-5 10-13 11-22v-2z" fill="#0D5C3F"/>
  <!-- Eye -->
  <circle cx="25" cy="32" r="3" fill="#FAFAF9"/>
  <!-- Tail fluke detail -->
  <path d="M82 55c-1 9-5 17-11 22l-8-8M82 53c-1-9-5-17-11-22l-8 8" stroke="#FAFAF9" stroke-width="2" stroke-linecap="round"/>
</svg>
